<svg width="25" height="25" viewBox="0 0 25 25" fill="none" xmlns="http://www.w3.org/2000/svg">
<g clip-path="url(#clip0_1_2625)">
<path d="M23.917 7.00622C24.1305 6.71304 24.2732 6.34505 24.3025 5.93076C24.3304 5.52915 24.254 5.14202 24.0819 4.81299C23.9163 4.49665 23.6621 4.26402 23.368 4.1182C23.1879 3.35329 22.6389 2.78761 21.9268 2.70725C21.5906 2.01023 20.9818 1.54963 20.2712 1.54963L20.1819 1.55208C20.0114 1.56166 19.852 1.60551 19.6984 1.66361C19.3143 1.09883 18.7487 0.740195 18.1058 0.740195L18.0102 0.742644C17.6605 0.761789 17.3466 0.889349 17.0741 1.08369C16.5125 0.31878 15.7006 -0.10976 14.8553 0.0249239C13.4818 0.245538 12.6652 1.77448 12.955 3.58058C13.1033 4.4991 13.5223 5.26491 14.0784 5.76669C13.8769 6.05898 13.7318 6.38089 13.6696 6.73708C13.3224 8.73686 14.7818 9.97172 15.7476 10.7876C15.9642 10.9717 16.1714 11.1438 16.3371 11.315C16.929 11.9261 17.0325 12.9428 16.5697 13.5808C16.537 13.6262 16.4829 13.6899 16.4159 13.7705C15.7331 14.5966 13.9159 16.7907 14.6256 19.1754C15.0294 20.5369 15.972 21.3816 17.4277 21.6843C17.8355 21.7687 18.226 21.8119 18.5902 21.8119C20.7892 21.8119 22.1452 20.2861 22.2184 17.7311C22.2471 16.7536 22.4001 15.9877 22.7028 15.3123C23.697 13.0563 25.3079 9.38824 23.917 7.00622ZM22.7449 5.1507C22.9735 5.16673 23.136 5.47884 23.1106 5.84705C23.0844 6.21504 22.8789 6.5011 22.6509 6.4853C22.4239 6.46927 22.2598 6.15716 22.2861 5.78895C22.3123 5.42074 22.5178 5.13467 22.7449 5.1507ZM21.7785 3.88623C22.063 3.90605 22.2685 4.29652 22.2358 4.75778C22.203 5.21994 21.9457 5.57768 21.6596 5.55698C21.3751 5.53717 21.1705 5.1458 21.2039 4.68543C21.2366 4.22328 21.494 3.8662 21.7785 3.88623ZM20.248 2.74442C20.6336 2.72372 20.9746 3.21281 21.0089 3.83681C21.0423 4.46059 20.758 4.98418 20.3707 5.00489C19.9858 5.02559 19.6456 4.53717 19.6113 3.9125C19.5773 3.28873 19.8624 2.76602 20.248 2.74442ZM18.0755 1.93588C18.5512 1.91028 18.9702 2.51268 19.0125 3.28071C19.0548 4.0503 18.7026 4.69411 18.2277 4.72038C17.752 4.74665 17.3339 4.14425 17.2916 3.37555C17.2491 2.60662 17.6006 1.96215 18.0755 1.93588ZM14.1349 3.39135C13.9579 2.2934 14.3651 1.31433 15.0448 1.20524C15.7228 1.09683 16.4159 1.89848 16.5919 2.99621C16.7689 4.09416 16.3624 5.07323 15.683 5.18231C15.0056 5.29162 14.3108 4.4893 14.1349 3.39135ZM21.6089 14.8324C21.2001 15.7413 21.0528 16.7055 21.024 17.6981C20.9938 18.7562 20.675 21.14 17.6714 20.5153C16.768 20.3272 16.0773 19.8669 15.7712 18.8366C15.1672 16.8074 17.1972 14.7527 17.5374 14.2849C18.354 13.1585 18.1859 11.5076 17.1964 10.4846C16.3406 9.60017 14.5512 8.64669 14.8468 6.94166C15.203 4.89491 20.4406 4.71882 22.6403 7.25711C24.1329 8.9804 22.6127 12.5521 21.6089 14.8324Z" fill="#3E5CA4"/>
<path d="M10.1449 3.21215C9.30206 3.0768 8.49018 3.50534 7.92673 4.27092C7.65335 4.07569 7.33946 3.94835 6.98817 3.9292L6.89423 3.92676C6.25131 3.92676 5.6863 4.2845 5.30162 4.85084C5.14779 4.79185 4.98684 4.74799 4.81564 4.73775L4.72882 4.7353C4.01823 4.7353 3.41026 5.1959 3.0741 5.89292C2.36662 5.97328 1.8201 6.53183 1.63599 7.29118C1.45189 7.38045 1.28314 7.50712 1.142 7.66963C0.820096 8.04096 0.658476 8.56923 0.697434 9.11976C0.726819 9.53317 0.869518 9.89982 1.08234 10.193C-0.307241 12.5743 1.30295 16.2433 2.30051 18.51C2.60082 19.177 2.75309 19.9417 2.78181 20.9201C2.85661 23.4751 4.21346 25 6.41092 25C6.77424 25 7.16538 24.957 7.57343 24.8718C9.02735 24.569 9.96992 23.7262 10.3755 22.3644C11.0855 19.9806 9.26978 17.7865 8.58612 16.9604C8.51912 16.8791 8.46502 16.8154 8.43163 16.77C7.9688 16.1311 8.07232 15.1138 8.66426 14.5027C8.82989 14.3315 9.03782 14.1594 9.25465 13.9753C10.2204 13.1587 11.679 11.9236 11.3308 9.92475C11.2693 9.56945 11.1244 9.24666 10.9229 8.95525C11.479 8.45325 11.8982 7.68766 12.0447 6.76981C12.1658 6.02248 12.0917 5.27204 11.8352 4.65605C11.5024 3.85752 10.8873 3.3317 10.1449 3.21215ZM6.92361 5.12266C7.39935 5.14893 7.75064 5.79341 7.70834 6.56233C7.66604 7.33192 7.24708 7.93343 6.77134 7.90716C6.29561 7.88156 5.94521 7.23708 5.98728 6.46749C6.0298 5.69946 6.4481 5.09728 6.92361 5.12266ZM4.75108 5.93143C5.13599 5.95302 5.42183 6.47551 5.38777 7.09951C5.35438 7.72417 5.01333 8.2126 4.62842 8.19189C4.24196 8.17119 3.95678 7.64781 3.99107 7.02382C4.02535 6.39982 4.36618 5.91073 4.75108 5.93143ZM3.22059 7.07301C3.50576 7.0532 3.76311 7.41006 3.79583 7.87221C3.82856 8.33281 3.62375 8.72306 3.33924 8.74376C3.05407 8.76447 2.79672 8.40672 2.76311 7.94456C2.7306 7.48419 2.93541 7.09372 3.22059 7.07301ZM2.2542 8.33838C2.48127 8.32235 2.68764 8.60774 2.71302 8.97573C2.73929 9.34372 2.57522 9.65605 2.34815 9.67208C2.12108 9.68811 1.9156 9.40271 1.88933 9.03383C1.86217 8.66651 2.02624 8.35418 2.2542 8.33838ZM7.80318 13.6723C6.81364 14.6946 6.64556 16.3462 7.46213 17.4726C7.80162 17.9403 9.83234 19.9951 9.22838 22.0243C8.92161 23.0536 8.23083 23.5149 7.32811 23.703C4.32366 24.3277 4.00576 21.9439 3.97482 20.8858C3.94699 19.8931 3.79872 18.929 3.39 18.02C2.38621 15.7398 0.865956 12.1674 2.35816 10.4457C4.55874 7.9065 9.79628 8.08348 10.1516 10.1302C10.4492 11.8344 8.65892 12.7878 7.80318 13.6723ZM10.8642 6.57836C10.6881 7.67631 9.99418 8.47862 9.31609 8.36932C8.63799 8.26024 8.23105 7.28094 8.40714 6.18321C8.58412 5.08526 9.27713 4.28383 9.95522 4.39225C10.634 4.50133 11.0418 5.48041 10.8642 6.57836Z" fill="#3E5CA4"/>
</g>
<defs>
<clipPath id="clip0_1_2625">
<rect width="25" height="25" fill="white"/>
</clipPath>
</defs>
</svg>
