<svg width="124" height="142" viewBox="0 0 124 142" fill="none" xmlns="http://www.w3.org/2000/svg">
<path d="M114.802 33.6299C115.826 32.2226 116.511 30.4562 116.652 28.4676C116.786 26.5399 116.419 24.6817 115.593 23.1024C114.798 21.5839 113.578 20.4673 112.166 19.7674C111.302 16.0958 108.667 13.3805 105.249 12.9948C103.635 9.6491 100.713 7.43822 97.3017 7.43822L96.873 7.44998C96.0546 7.49597 95.2895 7.70645 94.5522 7.98533C92.7086 5.27438 89.9937 3.55293 86.9078 3.55293L86.4489 3.56469C84.7703 3.65658 83.2636 4.26887 81.9556 5.20171C79.2599 1.53014 75.3628 -0.526851 71.3054 0.119632C64.7126 1.17858 60.7929 8.5175 62.1839 17.1868C62.8958 21.5957 64.907 25.2716 67.5762 27.6801C66.609 29.0831 65.9126 30.6283 65.614 32.338C63.9474 41.9369 70.9526 47.8643 75.5884 51.7805C76.6281 52.6642 77.6226 53.4902 78.418 54.312C81.2591 57.2453 81.7559 62.1254 79.5345 65.1878C79.3775 65.4058 79.1178 65.7115 78.7962 66.0984C75.5188 70.0637 66.7962 80.5954 70.2028 92.0419C72.141 98.5771 76.6655 102.632 83.6529 104.085C85.6103 104.49 87.4847 104.697 89.2329 104.697C99.7881 104.697 106.297 97.3733 106.648 85.1093C106.786 80.4173 107.52 76.741 108.973 73.499C113.746 62.6702 121.478 45.0636 114.802 33.6299ZM109.175 24.7234C110.273 24.8003 111.053 26.2984 110.931 28.0658C110.805 29.8322 109.819 31.2053 108.724 31.1294C107.635 31.0525 106.847 29.5544 106.973 27.787C107.099 26.0195 108.085 24.6464 109.175 24.7234ZM104.537 18.6539C105.902 18.749 106.889 20.6233 106.732 22.8373C106.574 25.0557 105.339 26.7729 103.966 26.6735C102.6 26.5784 101.618 24.6998 101.779 22.4901C101.936 20.2717 103.171 18.5578 104.537 18.6539ZM97.1903 13.1732C99.0412 13.0739 100.678 15.4215 100.843 18.4167C101.003 21.4108 99.6383 23.9241 97.7793 24.0235C95.9318 24.1228 94.2988 21.7784 94.1342 18.78C93.971 15.7859 95.3394 13.2769 97.1903 13.1732ZM86.7623 9.29222C89.0457 9.16934 91.0569 12.0609 91.2599 15.7474C91.463 19.4414 89.7724 22.5317 87.4929 22.6578C85.2095 22.7839 83.2026 19.8924 82.9996 16.2026C82.7956 12.5118 84.4828 9.41832 86.7623 9.29222ZM67.8474 16.2785C66.9978 11.0083 68.9524 6.30878 72.215 5.78515C75.4694 5.26478 78.7962 9.1127 79.641 14.3818C80.4906 19.652 78.5394 24.3515 75.2783 24.8751C72.0268 25.3998 68.6918 21.5486 67.8474 16.2785ZM103.723 71.1955C101.76 75.5582 101.053 80.1864 100.915 84.9509C100.77 90.0298 99.2399 101.472 84.8226 98.4734C80.4863 97.5706 77.171 95.3611 75.7017 90.4157C72.8025 80.6755 82.5465 70.813 84.1794 68.5675C88.0991 63.1608 87.2922 55.2365 82.5426 50.3261C78.4348 46.0808 69.8457 41.5041 71.2646 33.32C72.9743 23.4956 98.1148 22.6503 108.673 34.8341C115.838 43.1059 108.541 60.2501 103.723 71.1955Z" fill="#3E5CA4"/>
<path d="M48.6955 15.4183C44.6499 14.7686 40.7529 16.8256 38.0483 20.5004C36.7361 19.5633 35.2294 18.9521 33.5432 18.8602L33.0923 18.8484C30.0063 18.8484 27.2942 20.5656 25.4478 23.284C24.7094 23.0009 23.9368 22.7904 23.1151 22.7412L22.6983 22.7294C19.2875 22.7294 16.3692 24.9403 14.7557 28.286C11.3598 28.6717 8.73647 31.3528 7.85274 34.9977C6.96906 35.4262 6.15906 36.0342 5.48159 36.8142C3.93645 38.5966 3.16068 41.1323 3.34767 43.7748C3.48872 45.7592 4.17368 47.5191 5.19522 48.9264C-1.47476 60.3566 6.25415 77.9678 11.0424 88.848C12.4839 92.0496 13.2148 95.7201 13.3527 100.416C13.7117 112.68 20.2246 120 30.7724 120C32.5163 120 34.3938 119.794 36.3525 119.385C43.3313 117.931 47.8556 113.886 49.8024 107.349C53.2104 95.9069 44.4949 85.3752 41.2134 81.4099C40.8918 81.0197 40.6321 80.7139 40.4718 80.496C38.2502 77.4293 38.7471 72.5462 41.5884 69.613C42.3835 68.7912 43.3815 67.9651 44.4223 67.0814C49.0579 63.1618 56.0592 57.2333 54.3878 47.6388C54.0926 45.9334 53.3971 44.384 52.4299 42.9852C55.0992 40.5756 57.1113 36.9008 57.8145 32.4951C58.3958 28.9079 58.0402 25.3058 56.809 22.349C55.2115 18.5161 52.259 15.9922 48.6955 15.4183ZM33.2333 24.5888C35.5169 24.7149 37.2031 27.8084 37 31.4992C36.797 35.1932 34.786 38.0805 32.5024 37.9544C30.2189 37.8315 28.537 34.738 28.7389 31.044C28.943 27.3574 30.9509 24.4669 33.2333 24.5888ZM22.8052 28.4709C24.6527 28.5745 26.0248 31.0824 25.8613 34.0776C25.701 37.076 24.064 39.4205 22.2164 39.3211C20.3614 39.2217 18.9925 36.7095 19.1571 33.7143C19.3217 30.7191 20.9577 28.3715 22.8052 28.4709ZM15.4588 33.9504C16.8276 33.8554 18.0629 35.5683 18.22 37.7866C18.3771 39.9975 17.394 41.8707 16.0283 41.97C14.6595 42.0695 13.4242 40.3523 13.2629 38.1339C13.1069 35.9241 14.09 34.0499 15.4588 33.9504ZM10.8202 40.0242C11.9101 39.9473 12.9007 41.3172 13.0225 43.0835C13.1486 44.8499 12.361 46.349 11.2711 46.426C10.1812 46.5029 9.19487 45.133 9.06878 43.3624C8.93841 41.5992 9.72594 40.1001 10.8202 40.0242ZM37.4553 65.627C32.7055 70.5341 31.8987 78.4618 35.8182 83.8685C37.4478 86.1134 47.1952 95.9765 44.2962 105.717C42.8237 110.657 39.508 112.872 35.1749 113.774C20.7536 116.773 19.2276 105.331 19.0791 100.252C18.9455 95.4869 18.2338 90.8592 16.272 86.496C11.4538 75.551 4.15658 58.4035 11.3192 50.1394C21.8819 37.9512 47.0221 38.8007 48.7277 48.625C50.1561 56.8051 41.5628 61.3814 37.4553 65.627ZM52.1481 31.5761C51.3029 36.8463 47.9721 40.6974 44.7172 40.1727C41.4623 39.6492 39.509 34.9485 40.3543 29.6794C41.2038 24.4092 44.5302 20.5624 47.785 21.0828C51.0432 21.6064 53.0006 26.306 52.1481 31.5761Z" fill="#3E5CA4"/>
<path d="M17.1699 132.472H13.8828L13.8652 130.556H16.5811C17.0615 130.556 17.4512 130.497 17.75 130.38C18.0547 130.263 18.2773 130.093 18.418 129.87C18.5586 129.642 18.6289 129.36 18.6289 129.026C18.6289 128.646 18.5586 128.338 18.418 128.104C18.2773 127.869 18.0547 127.699 17.75 127.594C17.4512 127.482 17.0645 127.427 16.5898 127.427H14.9199V138H12.0547V125.203H16.5898C17.3574 125.203 18.043 125.273 18.6465 125.414C19.25 125.555 19.7627 125.771 20.1846 126.064C20.6123 126.357 20.9375 126.724 21.1602 127.163C21.3828 127.603 21.4941 128.121 21.4941 128.719C21.4941 129.24 21.377 129.727 21.1426 130.178C20.9141 130.629 20.5449 130.995 20.0352 131.276C19.5254 131.558 18.8428 131.71 17.9873 131.733L17.1699 132.472ZM17.0557 138H13.1533L14.1904 135.785H17.0557C17.4951 135.785 17.8525 135.715 18.1279 135.574C18.4033 135.434 18.6055 135.243 18.7344 135.003C18.8633 134.763 18.9277 134.493 18.9277 134.194C18.9277 133.843 18.8662 133.538 18.7432 133.28C18.626 133.022 18.4385 132.823 18.1807 132.683C17.9287 132.542 17.5918 132.472 17.1699 132.472H14.6035L14.6211 130.556H17.7588L18.4268 131.312C19.2412 131.294 19.8916 131.426 20.3779 131.707C20.8701 131.982 21.2246 132.346 21.4414 132.797C21.6582 133.248 21.7666 133.726 21.7666 134.229C21.7666 135.062 21.5879 135.759 21.2305 136.321C20.873 136.878 20.3428 137.297 19.6396 137.578C18.9424 137.859 18.0811 138 17.0557 138ZM28.9385 127.638L25.6338 138H22.5752L27.3125 125.203H29.2461L28.9385 127.638ZM31.6807 138L28.3672 127.638L28.0244 125.203H29.9844L34.7393 138H31.6807ZM31.54 133.236V135.451H24.8691V133.236H31.54ZM35.8027 125.203H40.7158C41.6943 125.203 42.541 125.35 43.2559 125.643C43.9766 125.936 44.5303 126.369 44.917 126.943C45.3037 127.518 45.4971 128.227 45.4971 129.07C45.4971 129.773 45.3828 130.371 45.1543 130.863C44.9258 131.355 44.6035 131.763 44.1875 132.085C43.7773 132.407 43.2969 132.668 42.7461 132.867L41.8145 133.377H37.6309L37.6133 131.153H40.7246C41.1523 131.153 41.5068 131.077 41.7881 130.925C42.0693 130.772 42.2803 130.559 42.4209 130.283C42.5674 130.002 42.6406 129.674 42.6406 129.299C42.6406 128.912 42.5674 128.578 42.4209 128.297C42.2744 128.016 42.0576 127.802 41.7705 127.655C41.4893 127.503 41.1377 127.427 40.7158 127.427H38.668V138H35.8027V125.203ZM42.8867 138L40.0127 132.313L43.0361 132.305L45.9541 137.868V138H42.8867ZM56.1406 135.785V138H49.3291V135.785H56.1406ZM50.3047 125.203V138H47.4395V125.203H50.3047ZM55.2617 130.354V132.498H49.3291V130.354H55.2617ZM56.1494 125.203V127.427H49.3291V125.203H56.1494ZM60.4121 125.203V138H57.5469V125.203H60.4121ZM65.4482 130.6V132.814H59.6123V130.6H65.4482ZM66.0107 125.203V127.427H59.6123V125.203H66.0107ZM78.0781 131.32V131.892C78.0781 132.864 77.9434 133.737 77.6738 134.511C77.4102 135.284 77.0322 135.943 76.54 136.488C76.0537 137.033 75.4736 137.452 74.7998 137.745C74.1318 138.032 73.3906 138.176 72.5762 138.176C71.7617 138.176 71.0176 138.032 70.3438 137.745C69.6699 137.452 69.084 137.033 68.5859 136.488C68.0938 135.943 67.7129 135.284 67.4434 134.511C67.1738 133.737 67.0391 132.864 67.0391 131.892V131.32C67.0391 130.348 67.1738 129.475 67.4434 128.701C67.7129 127.922 68.0908 127.26 68.5771 126.715C69.0693 126.17 69.6523 125.754 70.3262 125.467C71 125.174 71.7441 125.027 72.5586 125.027C73.373 125.027 74.1172 125.174 74.791 125.467C75.4648 125.754 76.0449 126.17 76.5312 126.715C77.0234 127.26 77.4043 127.922 77.6738 128.701C77.9434 129.475 78.0781 130.348 78.0781 131.32ZM75.1865 131.892V131.303C75.1865 130.652 75.1279 130.078 75.0107 129.58C74.8936 129.076 74.7236 128.654 74.501 128.314C74.2783 127.975 74.0029 127.72 73.6748 127.55C73.3467 127.374 72.9746 127.286 72.5586 127.286C72.125 127.286 71.7471 127.374 71.4248 127.55C71.1025 127.72 70.8301 127.975 70.6074 128.314C70.3906 128.654 70.2236 129.076 70.1064 129.58C69.9951 130.078 69.9395 130.652 69.9395 131.303V131.892C69.9395 132.536 69.9951 133.11 70.1064 133.614C70.2236 134.112 70.3936 134.534 70.6162 134.88C70.8389 135.226 71.1113 135.486 71.4336 135.662C71.7617 135.838 72.1426 135.926 72.5762 135.926C72.9922 135.926 73.3613 135.838 73.6836 135.662C74.0117 135.486 74.2871 135.226 74.5098 134.88C74.7324 134.534 74.8994 134.112 75.0107 133.614C75.1279 133.11 75.1865 132.536 75.1865 131.892ZM90.5059 131.32V131.892C90.5059 132.864 90.3711 133.737 90.1016 134.511C89.8379 135.284 89.46 135.943 88.9678 136.488C88.4814 137.033 87.9014 137.452 87.2275 137.745C86.5596 138.032 85.8184 138.176 85.0039 138.176C84.1895 138.176 83.4453 138.032 82.7715 137.745C82.0977 137.452 81.5117 137.033 81.0137 136.488C80.5215 135.943 80.1406 135.284 79.8711 134.511C79.6016 133.737 79.4668 132.864 79.4668 131.892V131.32C79.4668 130.348 79.6016 129.475 79.8711 128.701C80.1406 127.922 80.5186 127.26 81.0049 126.715C81.4971 126.17 82.0801 125.754 82.7539 125.467C83.4277 125.174 84.1719 125.027 84.9863 125.027C85.8008 125.027 86.5449 125.174 87.2188 125.467C87.8926 125.754 88.4727 126.17 88.959 126.715C89.4512 127.26 89.832 127.922 90.1016 128.701C90.3711 129.475 90.5059 130.348 90.5059 131.32ZM87.6143 131.892V131.303C87.6143 130.652 87.5557 130.078 87.4385 129.58C87.3213 129.076 87.1514 128.654 86.9287 128.314C86.7061 127.975 86.4307 127.72 86.1025 127.55C85.7744 127.374 85.4023 127.286 84.9863 127.286C84.5527 127.286 84.1748 127.374 83.8525 127.55C83.5303 127.72 83.2578 127.975 83.0352 128.314C82.8184 128.654 82.6514 129.076 82.5342 129.58C82.4229 130.078 82.3672 130.652 82.3672 131.303V131.892C82.3672 132.536 82.4229 133.11 82.5342 133.614C82.6514 134.112 82.8213 134.534 83.0439 134.88C83.2666 135.226 83.5391 135.486 83.8613 135.662C84.1895 135.838 84.5703 135.926 85.0039 135.926C85.4199 135.926 85.7891 135.838 86.1113 135.662C86.4395 135.486 86.7148 135.226 86.9375 134.88C87.1602 134.534 87.3271 134.112 87.4385 133.614C87.5557 133.11 87.6143 132.536 87.6143 131.892ZM97.5547 125.203V138H94.6982V125.203H97.5547ZM101.448 125.203V127.427H90.8838V125.203H101.448ZM111.564 135.785V138H104.753V135.785H111.564ZM105.729 125.203V138H102.863V125.203H105.729ZM110.686 130.354V132.498H104.753V130.354H110.686ZM111.573 125.203V127.427H104.753V125.203H111.573ZM117.022 138H114.21L114.228 135.785H117.022C117.661 135.785 118.2 135.639 118.64 135.346C119.079 135.047 119.413 134.607 119.642 134.027C119.87 133.441 119.984 132.729 119.984 131.892V131.303C119.984 130.67 119.92 130.113 119.791 129.633C119.662 129.146 119.472 128.739 119.22 128.411C118.968 128.083 118.654 127.837 118.279 127.673C117.91 127.509 117.485 127.427 117.005 127.427H114.157V125.203H117.005C117.872 125.203 118.663 125.35 119.378 125.643C120.099 125.936 120.72 126.354 121.241 126.899C121.769 127.444 122.176 128.089 122.463 128.833C122.75 129.577 122.894 130.406 122.894 131.32V131.892C122.894 132.8 122.75 133.629 122.463 134.379C122.176 135.123 121.769 135.768 121.241 136.312C120.72 136.852 120.102 137.268 119.387 137.561C118.672 137.854 117.884 138 117.022 138ZM115.836 125.203V138H112.971V125.203H115.836Z" fill="#3E5CA4"/>
</svg>
