<svg width="20" height="20" viewBox="0 0 20 20" fill="none" xmlns="http://www.w3.org/2000/svg">
<g clip-path="url(#clip0_1_2603)">
<path d="M8.66394 5.45027C8.5498 5.25968 8.33766 5.15027 8.11613 5.16711L3.35465 5.53492C2.87258 5.57218 2.44317 5.82484 2.17645 6.22819L0.178228 9.25052C-0.0239969 9.55641 -0.0561841 9.93918 0.0921741 10.2745C0.240493 10.6098 0.545374 10.8434 0.907676 10.8996L4.76858 11.4976C4.79862 11.5022 4.82862 11.5045 4.85839 11.5045C5.05616 11.5045 5.24327 11.4042 5.35198 11.2341L8.65496 6.06687C8.77461 5.87964 8.77804 5.64089 8.66394 5.45027Z" fill="#598766"/>
<path d="M14.5497 11.336C14.3591 11.2219 14.1203 11.2254 13.9331 11.345L8.76587 14.648C8.57021 14.7731 8.46689 15.0019 8.5024 15.2314L9.10036 19.0923C9.15649 19.4547 9.39016 19.7595 9.72551 19.9079C9.86496 19.9695 10.0126 20 10.1596 20C10.3659 20 10.5708 19.9399 10.7494 19.8218L13.7718 17.8235C14.1752 17.5569 14.4279 17.1274 14.465 16.6453L14.8329 11.8839C14.85 11.6624 14.7403 11.4502 14.5497 11.336Z" fill="#136431"/>
<path d="M7.53392 16.1045C7.76713 16.3377 8.09849 16.4468 8.42376 16.3924C13.1937 15.5948 16.9683 11.6455 18.4052 8.86724C20.0009 5.78234 20.06 2.52236 19.9766 0.993468C19.948 0.469566 19.5304 0.051952 19.0065 0.0233585C17.4776 -0.0600002 14.2177 -0.000899099 11.1327 1.59475C8.35454 3.03173 4.4052 6.80627 3.60763 11.5762C3.55325 11.9015 3.66231 12.2329 3.89551 12.4661L7.53392 16.1045Z" fill="#F1F1FB"/>
<path d="M19.6773 0.322693L5.71472 14.2853L7.53393 16.1045C7.76713 16.3377 8.09849 16.4468 8.42376 16.3924C13.1937 15.5948 16.9683 11.6455 18.4052 8.86728C20.0009 5.78238 20.06 2.5224 19.9766 0.993508C19.9623 0.731557 19.8507 0.496168 19.6773 0.322693Z" fill="#D7D6FB"/>
<path d="M13.7003 9.22797C12.95 9.22801 12.2 8.94247 11.6287 8.37126C11.0754 7.81795 10.7706 7.08221 10.7706 6.29968C10.7706 5.51714 11.0754 4.78141 11.6287 4.22809C12.771 3.08584 14.6296 3.0858 15.7719 4.22809C16.3252 4.78141 16.63 5.51714 16.63 6.29968C16.63 7.08221 16.3252 7.81795 15.7719 8.37126C15.2008 8.94235 14.4504 9.2279 13.7003 9.22797ZM12.043 4.64242H12.0434H12.043Z" fill="#466288"/>
<path d="M3.60763 11.5762C3.55325 11.9015 3.66231 12.2329 3.89551 12.4661L7.53393 16.1045C7.76713 16.3377 8.09849 16.4468 8.42376 16.3924C9.46169 16.2188 10.4524 15.8959 11.3822 15.4685L4.53153 8.61782C4.10407 9.54762 3.78118 10.5384 3.60763 11.5762Z" fill="#CE3B33"/>
<path d="M0.59782 16.4819C0.747742 16.4819 0.897742 16.4246 1.01212 16.3102L2.92512 14.3972C3.15395 14.1684 3.15395 13.7974 2.92512 13.5686C2.69634 13.3397 2.32536 13.3397 2.09649 13.5686L0.183523 15.4816C-0.0453052 15.7104 -0.0453052 16.0814 0.183523 16.3102C0.297937 16.4247 0.447859 16.4819 0.59782 16.4819Z" fill="#FDB43A"/>
<path d="M4.67827 15.3218C4.44948 15.093 4.07846 15.093 3.84963 15.3218L0.171743 18.9996C-0.057085 19.2284 -0.057085 19.5994 0.171743 19.8283C0.286157 19.9427 0.436118 19.9999 0.586079 19.9999C0.73604 19.9999 0.886001 19.9427 1.00038 19.8282L4.67827 16.1503C4.90709 15.9216 4.90709 15.5505 4.67827 15.3218Z" fill="#FDB43A"/>
<path d="M6.43141 17.0749C6.20262 16.8461 5.8316 16.8461 5.60278 17.0749L3.68981 18.9879C3.46098 19.2167 3.46098 19.5877 3.68981 19.8165C3.80422 19.9309 3.95418 19.9881 4.10411 19.9881C4.25403 19.9881 4.40403 19.9309 4.5184 19.8165L6.43141 17.9035C6.66024 17.6747 6.66024 17.3037 6.43141 17.0749Z" fill="#F57A21"/>
<path d="M0.171753 19.8283C0.286167 19.9427 0.436128 19.9999 0.586089 19.9999C0.73605 19.9999 0.886011 19.9427 1.00039 19.8282L4.67828 16.1503C4.9071 15.9216 4.9071 15.5505 4.67828 15.3217L0.171753 19.8283Z" fill="#F57A21"/>
<path d="M5.71472 14.2853L7.53393 16.1045C7.76713 16.3377 8.0985 16.4468 8.42377 16.3924C9.46169 16.2188 10.4524 15.8959 11.3822 15.4685L7.9569 12.0431L5.71472 14.2853Z" fill="#A5423B"/>
<path d="M11.6287 8.3713C12.1999 8.94251 12.95 9.2281 13.7003 9.22802C14.4504 9.22794 15.2008 8.94235 15.7719 8.3713C16.3252 7.81794 16.63 7.08223 16.63 6.2997C16.63 5.51716 16.3252 4.78141 15.7719 4.22809L11.6287 8.3713Z" fill="#3E5CA4"/>
<path d="M13.7003 4.54274C13.2501 4.54274 12.8 4.71407 12.4573 5.05676C12.1253 5.38875 11.9424 5.83016 11.9424 6.29969C11.9424 6.76922 12.1253 7.21063 12.4573 7.54262C13.1427 8.22797 14.2579 8.22801 14.9433 7.54262C15.2753 7.21059 15.4581 6.76918 15.4581 6.29965C15.4581 5.83012 15.2753 5.38871 14.9433 5.05672C14.6006 4.71407 14.1505 4.54274 13.7003 4.54274Z" fill="#CDDEFC"/>
<path d="M14.9432 5.05676L12.4573 7.54265C13.1427 8.228 14.2579 8.22804 14.9432 7.54265C15.2752 7.21062 15.4581 6.76922 15.4581 6.29969C15.4581 5.83016 15.2753 5.38875 14.9432 5.05676Z" fill="#3E5CA4"/>
</g>
<defs>
<clipPath id="clip0_1_2603">
<rect width="20" height="20" fill="white"/>
</clipPath>
</defs>
</svg>
