<svg width="30" height="30" viewBox="0 0 30 30" fill="none" xmlns="http://www.w3.org/2000/svg">
<path d="M15.0001 0.0624695C6.71586 0.0624695 0 6.77832 0 15.0626C0 22.4925 5.40783 28.6458 12.4984 29.8374V18.192H8.87992V14.0013H12.4984V10.9112C12.4984 7.32587 14.6882 5.37206 17.8871 5.37206C19.4191 5.37206 20.7357 5.48622 21.1179 5.5365V9.28415L18.8993 9.28523C17.16 9.28523 16.8247 10.1116 16.8247 11.3246V13.9991H20.9748L20.4335 18.1898H16.8247V29.9376C24.2463 29.0343 30 22.7243 30 15.0583C30 6.77832 23.2841 0.0624695 15.0001 0.0624695Z" fill="#3E5CA4"/>
</svg>
