<svg width="30" height="30" viewBox="0 0 30 30" fill="none" xmlns="http://www.w3.org/2000/svg">
<path d="M15 0C6.7157 0 0 6.7157 0 15C0 23.2843 6.7157 30 15 30C23.2843 30 30 23.2843 30 15C30 6.7157 23.2843 0 15 0ZM11.5056 26.0701C7.32675 26.0701 5.311 24.0789 5.311 21.9407C5.311 20.9018 5.82875 19.4302 7.529 18.4189C9.31458 17.3214 11.7364 17.1781 13.0337 17.0888C12.6288 16.5695 12.1694 16.0211 12.1694 15.1261C12.1694 14.636 12.3137 14.3469 12.4561 14.0001C12.1387 14.0296 11.8232 14.0578 11.5347 14.0578C8.48164 14.0578 6.75284 11.775 6.75284 9.52327C6.75284 8.19683 7.35714 6.72307 8.59581 5.65473C10.239 4.2976 12.4843 3.92931 14.0415 3.92931H19.7187L17.845 5.1066H16.0601C16.7224 5.65473 18.1034 6.80962 18.1034 9.00522C18.1034 11.1404 16.8948 12.1538 15.6853 13.1055C15.31 13.4802 14.8775 13.8844 14.8775 14.5206C14.8775 15.1544 15.3103 15.5006 15.6264 15.7627L16.6647 16.5692C17.9328 17.6369 19.0855 18.619 19.0849 20.6133C19.0846 23.3285 16.4609 26.0701 11.5056 26.0701ZM23.9402 14.6471V17.5516H22.5143V14.6471H19.6315V13.2055H22.5143V10.3188H23.9402V13.2055H26.8367V14.6471H23.9402Z" fill="#3E5CA4"/>
</svg>
